<?xml version="1.0" encoding="UTF-8" standalone="no"?>
<!-- Created with Inkscape (http://www.inkscape.org/) -->

<svg
   width="500mm"
   height="500mm"
   viewBox="0 0 500 500"
   version="1.1"
   id="svg1"
   xml:space="preserve"
   inkscape:version="1.4.3 (0d15f750, 2025-12-25)"
   sodipodi:docname="reliq-icon.svg"
   inkscape:export-filename="reliq-dark.png"
   inkscape:export-xdpi="96"
   inkscape:export-ydpi="96"
   xmlns:inkscape="http://www.inkscape.org/namespaces/inkscape"
   xmlns:sodipodi="http://sodipodi.sourceforge.net/DTD/sodipodi-0.dtd"
   xmlns="http://www.w3.org/2000/svg"
   xmlns:svg="http://www.w3.org/2000/svg"><sodipodi:namedview
     id="namedview1"
     pagecolor="#3c3836"
     bordercolor="#000000"
     borderopacity="0.25"
     inkscape:showpageshadow="2"
     inkscape:pageopacity="0.0"
     inkscape:pagecheckerboard="0"
     inkscape:deskcolor="#d1d1d1"
     inkscape:document-units="mm"
     inkscape:zoom="0.22494454"
     inkscape:cx="904.66744"
     inkscape:cy="1309.2116"
     inkscape:window-width="1280"
     inkscape:window-height="1386"
     inkscape:window-x="0"
     inkscape:window-y="25"
     inkscape:window-maximized="0"
     inkscape:current-layer="svg1"><inkscape:page
       x="0"
       y="0"
       width="500"
       height="500"
       id="page2"
       margin="0"
       bleed="0" /></sodipodi:namedview><defs
     id="defs1"><linearGradient
       id="swatch4"
       inkscape:swatch="solid"><stop
         style="stop-color:#000000;stop-opacity:1;"
         offset="0"
         id="stop4" /></linearGradient></defs><path
     id="path3"
     style="fill:#fbf1c7;fill-opacity:1;stroke:#fbf1c7;stroke-width:0.367991;stroke-opacity:1"
     d="m 249.61738,12.693799 c -7.51037,-1.3e-5 -15.02071,1.711113 -20.81992,5.133537 -40.53471,23.921699 -129.599654,75.343718 -170.583899,98.487004 -11.727084,6.62215 -20.949036,22.59443 -20.820434,36.06137 0.449443,47.06494 0.449442,149.90846 0,196.97351 -0.128602,13.46702 9.092895,29.43926 20.819918,36.06137 40.984156,23.14323 130.049625,74.56474 170.584415,98.48649 11.59849,6.84488 30.04142,6.84485 41.63984,0 18.32902,-10.81693 46.58081,-27.25657 75.82328,-44.16217 L 241.71244,308.16878 228.18561,321.10701 v 61.75127 H 173.49179 V 117.62176 h 58.81089 l 129.38331,88.8044 -82.33502,68.80872 115.04982,136.76736 c 18.08843,-10.38073 34.46798,-19.72933 46.62042,-26.59165 11.72708,-6.62214 20.94851,-22.59442 20.81992,-36.06137 -0.44946,-47.06494 -0.44946,-149.90846 0,-196.97351 0.12859,-13.46702 -9.09291,-29.43926 -20.81992,-36.06137 C 400.03704,93.171107 310.9721,41.749602 270.4373,17.827853 264.63806,14.40541 257.12775,12.693811 249.61738,12.693799 Z M 227.00946,169.96327 v 84.68785 l 54.10574,-44.6965 z" /></svg>
